<svg xmlns="http://www.w3.org/2000/svg" viewBox="0 0 1024 308"><defs><style>.cls-1{fill:#0090f4;}.cls-2{fill:#ffc18a;}.cls-3{fill:#0aafff;}.cls-4{fill:#4a9bff;}.cls-5{fill:#0ad9ff;}</style></defs><g id="图层_2" data-name="图层 2"><g id="图层_1-2" data-name="图层 1"><path class="cls-1" d="M985.55,0H20C2,0,0,9.12,0,20.37v89.95C27.46,102,55.23,94.17,87.15,90.16c19.06-2.16,39.49-2.88,58.55.73,27.24,5,46.3,17.31,73.53,21.63,102.13,17.32,204.26-7.93,298.22-26.68C569.19,75.74,625,84.39,671.32,101c77.62,26.69,162,3.61,241-7.93A957.23,957.23,0,0,1,1024,81.57V20.37C1024,0,1024,0,985.55,0Z"/><path class="cls-2" d="M322.6,122.79a41.3,41.3,0,0,0-82.6,0c0,.4,0,.81,0,1.21h82.54C322.58,123.6,322.6,123.19,322.6,122.79Z"/><path class="cls-3" d="M42.21,205.57c62.64,24.53,138.9,9.38,202.9-2.88,24.51-4.33,49-7.94,76.25-5.77,100.77,10.82,185.19,46.88,286,39,32.68-2.17,61.28-12.26,94-17.31,59.91-7.94,121.19,3.6,172.93,20.19,45.75,14,97.57,19.56,149.79,19.08V81.57A957.23,957.23,0,0,0,912.34,93.05c-79,11.54-163.4,34.62-241,7.93C625,84.39,569.19,75.74,517.45,85.84c-94,18.75-196.09,44-298.22,26.68C192,108.2,172.94,95.93,145.7,90.89c-19.06-3.61-39.49-2.89-58.55-.73C55.23,94.17,27.46,102,0,110.32V177.8C13,187.6,23.84,198.4,42.21,205.57Z"/><rect class="cls-4" x="587.64" y="214.6" width="7.77" height="38.38"/><path class="cls-4" d="M595.17,217.49v-.06c0-7.56,5.76-13.7,12.86-13.7s12.85,6.14,12.85,13.7v.06H628v-.06c0-11.77-8.95-21.31-20-21.31s-20,9.54-20,21.31v.06Z"/><path class="cls-4" d="M575,203.59c7.08,0,12.82,6.1,12.86,13.64H595c0-11.75-9-21.25-20-21.25s-20,9.5-20,21.25h7.14C562.2,209.69,567.94,203.59,575,203.59Z"/><path class="cls-5" d="M874.21,238.75c-51.74-16.59-113-28.13-172.93-20.19-32.68,5.05-61.28,15.14-94,17.31-100.77,7.93-185.19-28.13-286-39-27.23-2.17-51.74,1.44-76.25,5.77-64,12.26-140.26,27.41-202.9,2.88C23.84,198.4,13,187.6,0,177.8V287.63C0,301,7,308,21,308H985.55c28.45,0,38.45,0,38.45-20.37v-29.8C971.78,258.31,920,252.76,874.21,238.75Z"/><rect class="cls-4" x="890.64" y="77.6" width="7.77" height="38.38"/><path class="cls-4" d="M898.17,80.49v-.06c0-7.56,5.76-13.7,12.86-13.7s12.85,6.14,12.85,13.7v.06H931v-.06c0-11.77-8.95-21.31-20-21.31s-20,9.54-20,21.31v.06Z"/><path class="cls-4" d="M878,66.59c7.08,0,12.82,6.1,12.86,13.64H898c0-11.75-9-21.25-20-21.25s-20,9.5-20,21.25h7.14C865.2,72.69,870.94,66.59,878,66.59Z"/></g></g></svg>