<svg xmlns="http://www.w3.org/2000/svg" width="250" height="105" fill="none" viewBox="5 68 240 105">
<!-- SVG created with Arrow, by QuiverAI (https://quiver.ai) -->
  <defs>
    <clipPath id="roundClip">
      <rect x="5" y="68" width="240" height="105" rx="16" ry="16"/>
    </clipPath>
  </defs>
  <rect x="5" y="68" width="240" height="105" rx="16" ry="16" fill="#D3E8CC"/>
  <g clip-path="url(#roundClip)">
  <path d="m244.9 64.46h-239.6v120h239.6v-120z" fill="url(#paint0_linear_156_593)"/>
  <path d="m244.6 82.76-239.3 0.86v7.68l120.3 0.96 119-3.55v-5.95z" fill="#F7C9A4"/>
  <path d="m244.6 99.17-239.3 0.56v25.01l120.3 0.32 119-0.32v-25.57z" fill="#F7A188"/>
  <path d="m244.6 91.44c-11.5-3.03-26.71 0.24-36.77 14.43-8.87-3.14-18.71-1.21-28.17 8.57-7.76-3.96-14.93-0.43-18.49 6.64-7.95-3.14-16.3-2.36-21.33 3.98h104.8v-33.62z" fill="#FB8072"/>
  <path d="m5.29 91.78c11.5-3.62 27.22-0.61 36.5 13.65 9.79-3.14 18.83-1.21 26.93 8.29 8.51-2.36 16.29-0.04 20 6.29 7.95-1.75 15.1-0.56 19.69 5.05h-103.1v-33.28z" fill="#FB8072"/>
  <path d="m244.6 72.27c-8.41-5.15-17.31-4.38-23.58 2.95-9.9-6.37-20.82-4.84-27.35 4.94-4.75-2.14-8.6 0-11.04 3.77-5.9-1.87-10.65-0.62-14.91 3.69l76.88 0.19v-15.54z" fill="#FEF0B6"/>
  <path d="m5.29 70.26c8.41-2.35 15.52-1.58 20.63 4.96 9.06-5.81 19.26-5.13 26.72 4.94 5.24-1.8 9.09-0.27 11.53 3.15 5.9-0.96 11.84-0.34 16.1 3.5l-74.98 0.27v-16.82z" fill="#FEF0B6"/>
  <path d="m152.6 106.1c-6.89-11.71-16.83-16.07-28.65-16.21-18.74-0.24-31.65 14.12-32.68 30.87l66.3-5.88c-0.55-3.04-1.58-5.95-3.06-8.64l-1.91-0.14z" fill="#FEF0B6"/>
  <path d="m137.2 108.5c-3.75-0.28-7.1 1.21-9.29 3.64-3.99-0.96-7.74-0.54-9.93 2.21h24.96c1.03-3.34-1.75-5.55-5.74-5.85z" fill="#F7C9A4"/>
  <path d="m64.92 91.17c-3.75 0.27-6.11 1.95-7.59 4.06-5.32-2.46-9.38-0.27-10.86 4.78l39.22-1.1c-3.02-3.04-7.2-3.46-11.71-2.5-1.97-3.29-4.75-5.52-9.06-5.24z" fill="#FEF0B6"/>
  <path d="m244.7 124.7h-239.4v15.1l5.56 0.9 25.98-4.32 29.29 2.29 5.69 1.13 22.2-2.68 29.96 1.55 31.19-2.29 21.15 2.29 40.54-2.29 27.86 3.42v-15.1z" fill="#A5CDC6"/>
  <path d="m5.29 140.7c8.87 0 13.42-4.32 31.46-4.81 11.06-0.31 17.29 3.98 29.07 3.7 4.91-0.13 4.4 2.48 9.19 2.48 6.9 0 12.01-5.02 22.15-4.19 7.76 0.68 12.13 4.89 21.59 1.99 4.44-0.9 13.16-0.35 17.67 0.35 5.03 0.77 7.22-4.78 23.27-3.56 7.76 0.6 11.58 3.21 20 2.93 9.46-0.34 13.83-0.69 20.03-2.54 5.9-1.85 12.79-2.27 19.25-1.5 6.46 0.76 11.94 3.56 25.51 4.25l0.11 44.66h-239.5l0.18-43.76z" fill="url(#paint1_linear_156_593)"/>
  <path d="m5.29 156.4c10.14 1.22 16.92-5.25 30.49-6.28 11.96-0.93 15.98 3.89 27.41 3.89 10.14 0 14.51-3.42 23.97-3.7 9.46-0.27 12.77-1.3 22.76 1.48 7.24 2.22 14.93 2.92 23.89 1.24 5.9-1.24 10.62-2.3 17.11-1.95 8.42 0.52 11.32 4.61 22.01 4.61 9.46 0 15.39-0.77 21.29-3.27 5.9-2.24 12.2-3.2 18.5-2.72 9.46 0.62 15.21 6.7 31.8 6.29v28.49h-239.4l0.18-28.08z" fill="url(#paint2_linear_156_593)"/>
  <path d="m5.29 174.7c11.06-3.42 16.78-5.65 30.35-5.93 14.55-0.27 18.61 6.2 37.91 6.48 15.09 0.27 20.46-4.04 35.56-5.59 15.6-1.68 24.02 1.1 38.02 4.52 8.96 1.93 18.68 1.93 27.1 0.52 10.14-1.94 16.92-4.43 26.38-4.43 12.5-0.61 17.9 1.18 26.86 3.11 4.75 1.08 9.63 1.59 17.05 0.8v10.36h-239.4l0.18-9.84z" fill="#244A72"/>
  <path d="m20.62 144.7c-3.31 0.55-6.01 2.04-7.56 2.46 4.1-0.07 5.13-0.97 8.88-1.52 4.75-0.67 6.72 0.55 10.47 0.55-2.83-1.94-6.75-2.28-11.79-1.49z" fill="#B0E1E9"/>
  <path d="m115.4 145.6c-2.71-0.41-3.26-0.27-3.26-0.27 3.04 1.55 6.86 2.38 11.3 1.35s5.92-2 11.82-0.96c-3.04-1.94-5.82-1.87-9.81-0.73-2.85 0.83-5.88 1.21-10.05 0.61z" fill="#B0E1E9"/>
  <path d="m219 142.8c-3.31 0.55-6.01 2.04-7.56 2.45 4.1-0.07 5.13-0.97 8.88-1.52 4.75-0.67 6.72 0.55 10.47 0.55-2.83-1.94-6.75-2.28-11.79-1.48z" fill="#B0E1E9"/>
  <path d="m31.99 161.3c-2.71 0.42-4.19 1.12-6.76 1.74 4.44-0.7 5.92-1.32 9.8-0.9 3.38 0.41 4.2 1.63 8.64 0.76 3.85-0.76 4.6-1.87 9.04-0.69 3.45 0.97 7.65 5.69 17.79 6.1 5.04 0.21 7.23-1.1 9.42-1.79-5.04 0.62-8.65 0.97-13.4-0.07-5.9-1.35-8.8-5.11-14.28-5.73-3.49-0.42-5.68 1.9-10.72 1.49-2.58-0.21-4.41-1.7-9.53-0.91z" fill="#B0E1E9"/>
  <path d="m94.01 162.6c-3.38 1.08-5.89 0.56-7.37 0 3.92-0.28 4.43-0.41 8.87-1.97 5.04-1.8 7.23-1.11 11.67 0.83 3.85 1.7 6.75 2.22 11.19 2.22-2.93 1.11-7.65 0.63-11.65-1.36-3.24-1.55-6.66-1.9-12.71 0.28z" fill="#B0E1E9"/>
  <path d="m170.7 171.1c-3.31 1.07-6.73 0.72-8.21 0.17 3.38 1.55 7.65 1.83 12.09 0.28 5.03-1.8 7.93-3.61 18.14-2.54-4.44-2.17-10.34-1.65-15.37 0-2.48 0.83-3.23 1.08-6.65 2.09z" fill="#B0E1E9"/>
  <path d="m213.1 159.1c-2.78 0.7-5.14 2.32-5.14 2.32 2.7-0.89 4.99-1.41 8.19-1.55 3.1-0.14 5.61 0.55 8.12 1.24-2.51-2.07-6.57-3.11-11.17-2.01z" fill="#B0E1E9"/>
  <path d="m89.68 136.4c-9.46 0.28-12.37 11.81-17.4 12.84-3.38 0.69-3.67-3.03-2.92-5.24 0.56-1.74-0.46-3.9-2.44-0.79-1.1 1.86-1.85 2.13-3.83 2.06-1.97-0.06-3-0.86-4.17-1.06 0.82 2.55 3.72 4.77 6.9 3.66 1.41 4.31 5.26 7.28 11.95 6.31 7.17-1.07 8.41-3.97 12.36-5.52 2.71-1.07 5.03-0.66 8-1.7 0.62-4.7-2.31-10.77-8.45-10.56z" fill="#1B486D"/>
  <path d="m90.06 146.1c0.76 0 1.08-0.48 1.08-1.07s-0.51-0.93-1.08-0.93c-0.63 0-0.99 0.48-0.99 0.93 0 0.59 0.44 1.07 0.99 1.07z" fill="#B0E1E9"/>
  <path d="m150 143c-9.46 0.51-11.2 9.21-10.7 14.39l-3.96 5.92c2.48-1.25 4.45-1.46 7.76-1.11 4.44 0.41 8.36 2.77 14.26 3.05 6.46 0.34 14.22-1.88 18.14-3.05 5.04-1.56 6.72-4.61 7.27-6.61 3 0.14 5.9-1.86 6.93-5.55-2.51 1.07-3.54 0.66-5.02 0.66-1.98 0-2.53 0.34-3.56-0.69-1.55-1.62-2.51-3.32-4.99-4.39-0.55 2.77-0.83 5.67 2.07 8.1-1.03 2.78-3.42 3.81-6.91 1.29-5.03-6.62-11.84-12.5-21.29-12.01z" fill="#1B486D"/>
  <path d="m151.8 156.9c0.96 0 1.25-0.7 1.25-1.35 0-0.76-0.69-1.18-1.25-1.18-0.75 0-1.18 0.63-1.18 1.18 0 0.76 0.55 1.35 1.18 1.35z" fill="#B0E1E9"/>
  <path d="m135.3 127 23.34-1.97v-1.45h0.44v2.43l-1.17 0.99c-3.45 1.04-9.79 1.52-19.25 2.08v1.03l16.5 1.55-8.42 2.22-11.44-0.55v0.96l8.42 1.3-3.96 1.08-13.57 1.22-25.98-2.89v-1.6l14.55-1.22v-1.07l-16.55-1.55-7.76-2.56v-1.97l21.66 0.56v1.03l-11.9 0.97v1.04l11.44 0.96v1.04l2.48-0.52 0.48-1.48-0.96-1.63h21.65z" fill="#F7C9A4"/>
  <path d="m42.15 130.1c0.96-0.41 1.99-0.62 3.02-0.34 1.74 0.48 2.64-0.48 3.19-1.62 1.1-0.66 0.96 1 0.45 2.31-0.59 1.55-1.76 2.8 0 3.7 3.85 1.55 7.41-5.46 13.31-5.46 5.56 0 5.99 4.05 5.99 7.35l-0.55 1.56h-6.46c-3 0-7.96-1.04-11.88-2.26-2.48-0.83-3.03-2.9-4.51-3.45-1.1-0.41-2.27-0.82-2.56-1.79z" fill="#49859E"/>
  <path d="m60.62 135.7c0.44 0 0.69-0.31 0.69-0.66s-0.32-0.64-0.69-0.64c-0.41 0-0.67 0.32-0.67 0.64 0 0.38 0.29 0.66 0.67 0.66z" fill="#B0E1E9"/>
  <path d="m176.8 138.8c-0.21-4.9 3.1-8.05 8.73-8.05 5.04 0 7.4 4.9 11.84 4.9 1.97 0 1.54-2.44 1.05-4-0.48-1.62-1.3-2.41 0.38-1.62 1.17 0.59 1.6 1.62 3.08 1.62 1.24 0 1.53-0.55 2.01-0.55 0.82 0-0.48 2.8-3.19 3.64-1.43 0.49-1.01 2.48-2.76 3.51-2.26 1.3-5.01 1.93-19.53 1.51l-1.61-0.96z" fill="#2A6286"/>
  <path d="m183.4 137.9c0.41 0 0.67-0.32 0.67-0.63 0-0.41-0.32-0.66-0.67-0.66-0.38 0-0.68 0.32-0.68 0.66 0 0.35 0.3 0.63 0.68 0.63z" fill="#B0E1E9"/>
  <defs>
    <linearGradient id="paint0_linear_156_593" x1="125.1" x2="125.1" y1="64.46" y2="103.1" gradientUnits="userSpaceOnUse">
      <stop stop-color="#D3E8CC" offset="0"/>
      <stop stop-color="#DDE9C2" offset="1"/>
    </linearGradient>
    <linearGradient id="paint1_linear_156_593" x1="124.9" x2="124.9" y1="124.7" y2="148.9" gradientUnits="userSpaceOnUse">
      <stop stop-color="#A5CDC6" offset="0"/>
      <stop stop-color="#58A2B6" offset="1"/>
    </linearGradient>
    <linearGradient id="paint2_linear_156_593" x1="124.8" x2="124.8" y1="140.1" y2="168.5" gradientUnits="userSpaceOnUse">
      <stop stop-color="#49859E" offset="0"/>
      <stop stop-color="#2A6286" offset="1"/>
    </linearGradient>
  </defs>
  </g>
</svg>