<svg xmlns="http://www.w3.org/2000/svg" width="250" height="110" fill="none" viewBox="3 72 247 108">
<!-- SVG created with Arrow, by QuiverAI (https://quiver.ai) -->
  <path d="m130.4 128.3 8.54-20.8c0.8-2.04 1.7-2.22 3.56-2.22h0.55c1.68 0 2.62 0.32 3.52 2.72l8.3 20.55c0.32 0.8 0.46 1.42 0.46 1.91 0 1.29-1.08 2.05-2.76 2.05h-0.39c-1.51 0-2.09-0.69-2.71-2.44l-1.33-3.67h-10.7l-1.36 3.74c-0.63 1.82-1.36 2.37-2.65 2.37h-0.25c-1.79 0-3.23-0.9-2.81-2.79 0.07-0.36 0.21-0.82 0.03-1.42zm16.27-6.9-3.88-10.36-3.92 10.36h7.8z" fill="#2A5872"/>
  <path d="m163.6 115.8c0.83-2.4 2.55-3.13 4.54-3.13s2.75 0.94 2.75 2.52c0 1.72-1.36 2.41-3 2.27-2.72-0.21-4.26 1.34-4.26 5.01v6.93c0 1.96-1.11 2.8-2.83 2.8h-0.32c-1.75 0-2.76-0.87-2.76-2.8v-13.88c0-1.86 1.01-2.73 2.73-2.73h0.32c1.68-0.01 2.76 0.93 2.83 3.01z" fill="#2A5872"/>
  <path d="m175.6 104c2.47 0 3.37 1.22 3.37 3.28 0 1.99-1.04 3.21-3.37 3.21-2.4 0-3.37-1.22-3.37-3.21 0-2.06 1.11-3.28 3.37-3.28zm-2.86 11.63c0-1.96 1.08-2.8 2.79-2.8h0.32c1.79 0 2.8 0.83 2.8 2.8v13.82c0 1.96-1.01 2.8-2.8 2.8h-0.28c-1.79 0-2.83-0.87-2.83-2.8v-13.82z" fill="#2A5872"/>
  <path d="m182.3 122.4c0-6.6 4.36-9.8 9.29-9.8 5.14 0 8.41 3.2 8.66 8.59v0.42c-0.04 1.43-0.66 2.3-2.27 2.3h-10.22c0.39 2.79 2.25 4.15 5.21 4.15 2.13 0 3.53-0.83 4.57-1.45 0.9-0.55 2.38-0.16 2.38 1.66 0 2.19-2.79 4.18-7.41 4.18-5.85 0-10.21-3.23-10.21-10.05zm12.87-1.86c-0.25-2.72-1.68-4.16-3.97-4.16-2.17 0-3.85 1.47-4.17 4.16h8.14z" fill="#2A5872"/>
  <path d="m203.4 128.6c0-1.4 1.43-2.3 1.95-2.3 1.19 1.04 3.41 2.3 6.44 2.3 1.96 0 2.93-0.66 2.93-1.85 0-1.47-1.82-1.64-4.29-2.23-2.62-0.66-6.22-1.7-6.22-5.58 0-3.74 2.75-6.11 7.97-6.11 4.93 0 7.19 1.79 7.19 3.58 0 1.36-1.54 2.33-1.93 2.26-1.33-1.29-3.29-2.19-5.36-2.19-1.86 0-2.86 0.69-2.86 1.88 0 1.33 1.47 1.54 4.12 2.23 2.93 0.76 6.39 1.84 6.39 5.65 0 3.71-2.75 6.01-8.14 6.01-5.53 0-8.19-1.89-8.19-3.65z" fill="#2A5872"/>
  <path d="m136.3 163.3-6.28-20.8c-0.14-0.49-0.25-1.04-0.25-1.43 0-1.29 1.15-2.33 3.01-2.33h0.28c1.51 0 2.31 0.69 2.77 2.55l4.89 16.77 4.5-16.05c0.52-1.86 1.35-2.62 3.03-2.62h0.32c1.75 0 2.62 0.8 3.14 2.69l4.46 15.91 4.56-16.53c0.52-1.89 1.25-2.72 2.79-2.72h0.25c1.86 0 2.69 0.97 2.37 2.58-0.07 0.46-0.21 0.94-0.35 1.47l-6.56 20.44c-0.62 2.03-1.77 2.62-3.48 2.62h-0.42c-1.86 0-2.9-0.76-3.46-2.83l-4.12-14.83-4.29 14.83c-0.62 2.14-1.7 2.83-3.49 2.83h-0.42c-1.72 0-2.69-0.69-3.25-2.55z" fill="#2A5872"/>
  <path d="m165.8 156.3c0-6.32 3.78-10.13 8.85-10.13 2.72 0 4.98 1.26 6.09 3.08v-0.32c0.07-1.54 1.04-2.41 2.62-2.41h0.32c1.61 0 2.65 0.8 2.65 2.76v13.65c0 1.96-1.04 2.76-2.69 2.76h-0.32c-1.68 0-2.58-0.8-2.58-2.23v-0.45c-1.15 1.92-3.34 3.04-5.99 3.04-5.1 0-8.95-3.6-8.95-9.75zm14.51-0.18c0-3.43-2.07-5.76-4.92-5.76-2.79 0-4.86 2.23-4.86 5.76 0 3.43 2.03 5.66 4.86 5.66 2.82 0 4.92-2.23 4.92-5.66z" fill="#2A5872"/>
  <path d="m190.1 140.4c0-1.86 1.08-2.76 2.76-2.76h0.32c1.72 0 2.72 0.9 2.72 2.76v22.65c0 1.86-1 2.73-2.72 2.73h-0.32c-1.72 0-2.76-0.9-2.76-2.73v-22.65z" fill="#2A5872"/>
  <path d="m200 140.4c0-1.86 1.08-2.76 2.76-2.76h0.32c1.72 0 2.72 0.9 2.72 2.76v22.65c0 1.86-1 2.73-2.72 2.73h-0.32c-1.72 0-2.76-0.9-2.76-2.73v-22.65z" fill="#2A5872"/>
  <path d="m208.8 156c0-6.6 4.36-9.8 9.29-9.8 5.14 0 8.41 3.2 8.66 8.59v0.42c-0.04 1.43-0.66 2.3-2.27 2.3h-10.22c0.39 2.79 2.25 4.15 5.21 4.15 2.13 0 3.53-0.83 4.57-1.45 0.9-0.55 2.38-0.16 2.38 1.66 0 2.19-2.79 4.18-7.41 4.18-5.85 0-10.21-3.23-10.21-10.05zm12.87-1.86c-0.25-2.72-1.68-4.16-3.97-4.16-2.17 0-3.85 1.47-4.17 4.16h8.14z" fill="#2A5872"/>
  <path d="m233.4 158.9v-8.65h-0.94c-1.68 0-2.55-0.83-2.55-2.23v-0.14c0-1.47 0.83-2.27 2.48-2.27h1.04v-2.33c0-1.96 1-2.9 2.72-2.9h0.32c1.61 0 2.69 0.8 2.69 2.9v2.33h2.47c1.79 0 2.69 0.8 2.69 2.23v0.18c0 1.51-0.97 2.27-2.76 2.27h-2.51v7.76c0 1.93 0.66 2.76 2.27 2.76 0.97 0 1.63-0.39 2.18-0.84 0.69 0.32 1.25 1.22 1.25 2.23 0 1.72-1.72 3.4-5.22 3.4-3.98 0-6.13-2.03-6.13-6.7z" fill="#2A5872"/>
  <path d="m105 100.2h-43.35c-7.91 0-12.93 6.37-12.93 14.28v6.38c0 6.8-4.68 11.48-10.29 11.15-5.61-0.32-9.97-4.35-9.97-11.8 0-1.96 1.96-1.3 6.92-4.19 6.59-3.66 6.91-12.21 4.95-15.17-1.96 2.62-4.22 2.29-7.55 3.26-4.68 1.4-8.01 4.02-9.3 5.98-2.3-4.33-5.26-4.99-8.22-5.65s-4.92-1.32-6.88-3.28c-1.96 4.03-0.67 12.57 6.55 16.56 4.62 2.62 5.28 1.29 4.62 7.24-1.96 19.6 11.28 38.23 30.88 41.83l-0.97 5.61c7.91 0 13.2-3.99 15.5-5.95h26.22c13.99 0 25.35-11.69 25.35-24.03v-29.01c0-7.22-4.68-13.21-11.53-13.21z" fill="#6DB0C8" stroke="#1D526E" stroke-linecap="round" stroke-linejoin="round" stroke-width="3.3"/>
  <path d="m104.3 103.9h-43.04c-7.12 0-10.76 4.6-10.76 11.72v2.54c0-7.11 3.26-12.4 10.76-12.4h42.71c6.73 0 9.12 3.89 9.12 9.5v-2.26c0-5.29-2.55-9.1-8.79-9.1z" fill="#B4E3E5"/>
  <path d="m94.42 164.5c9.04-2.19 16.77-11.4 19.06-17.99-5.95 1.96-9.62 2.62-15.23 2.62s-10.87-1.33-14.86-5.95c-3.27 3.99-7.92 11.21-13.21 13.17l-2.62 9.7h23.57c1.15 0 2.19-0.32 3.29-1.55z" fill="#F7F7EA" stroke="#1D526E" stroke-linecap="round" stroke-linejoin="round" stroke-width="2.64"/>
  <path d="m106.2 148.8c-2.96 7.91-9.55 14.5-18.1 15.79l3 0.66c11.05 0 20.08-10.04 22.37-18.58l-7.27 2.13z" fill="#B4D9E0"/>
  <path d="m92.12 148.2c-3.13 7.91-9.41 13.52-18.94 13.52h-4.32l-1.65 3.99 7.55-0.42c9.53 0 19.23-7.55 21.52-16.1l-4.16-0.99z" fill="#B4D9E0"/>
  <path d="m105 100.2h-43.35c-7.91 0-12.93 5.61-12.93 13.52v7.14c0 6.8-4.68 11.48-10.29 11.15-5.61-0.32-9.97-4.35-9.97-11.8 0-1.96 1.96-1.3 6.92-4.19 6.59-3.66 7.57-12.21 4.95-15.17-1.96 2.62-4.22 2.29-7.55 3.26-4.68 1.4-7.65 4.02-8.94 5.98-2.3-4.33-4.95-4.99-7.91-5.65s-5.59-1.32-7.55-3.28c-1.96 4.03-0.67 12.57 6.55 16.56 4.62 2.62 5.28 1.29 4.62 7.24-1.96 19.6 11.28 35.61 29.55 40.9 0-3.3 0.97-5.29 1.98-7.25-16.01-0.97-28.58-13.71-29.55-31.64 0.97 6.59 6.26 9.89 11.55 10.55 8.54 0 16.74-4.96 17.07-16.01v-7.55c0-6.59 4.03-10.89 11.25-10.89h42.32c6.59 0 10.19 4.96 10.19 10.91v4.65h2.62v-5.22c0-7.22-4.68-13.21-11.53-13.21z" fill="#579BB7"/>
  <path d="m104.3 121.2h13.24c2.3 0 3.27 1.96 3.27 4.58v7.91c0 2.62-1.33 3.95-3.29 3.95h-13.24c-5.29 0-7.58-3.95-7.58-8.57 0-4.29 2.96-7.87 7.6-7.87z" fill="#99D9CD" stroke="#1D526E" stroke-linecap="round" stroke-linejoin="round" stroke-width="3.3"/>
  <path d="m105 133.1c2.9 0 3.27-1.99 3.27-3.32 0-1.88-1.33-3.4-3.27-3.4-2.14 0-3.29 1.47-3.29 3.4 0 1.64 1.08 3.32 3.29 3.32z" fill="#1D526E"/>
  <path d="m76.43 137.7c3.49 0.93 4.62-1.62 4.62-3.3 0-2.62-1.64-4.37-4.29-4.37s-3.98 2.03-3.98 3.71c0 1.89 1.04 3.4 3.65 3.96z" fill="#1D526E"/>
  <path d="m106.6 111.4c0.32-1.33-0.34-2.3-2.96-2.3h-9.04" stroke="#B4D9E0" stroke-linecap="round" stroke-linejoin="round" stroke-width="3.3"/>
  <path d="m89.02 110.8c1.36 0 1.56-1 1.56-1.52 0-0.9-0.66-1.64-1.56-1.64-0.97 0-1.53 0.71-1.53 1.64 0 0.8 0.52 1.52 1.53 1.52z" fill="#B4D9E0"/>
  <path d="m55.65 154.8c-3.99 4.33-6.28 9.62-6.28 17.53 8.54 0 19.59-7.91 19.92-18.96" stroke="#1D526E" stroke-linecap="round" stroke-linejoin="round" stroke-width="3.3"/>
  <path d="m95.79 93.99 2.96-12.26-8.54 4.62-6.59-10.43-6.89 10.76-9.81-5.28 3.3 12.59h25.57z" fill="#F9E3D4" stroke="#1D526E" stroke-linecap="round" stroke-linejoin="round" stroke-width="3.3"/>
  <path d="m83.62 75.92-0.32 18.07h12.49l2.96-12.26-8.54 4.62-6.59-10.43z" fill="#E5887A" stroke="#1D526E" stroke-linecap="round" stroke-linejoin="round" stroke-width="3.3"/>
</svg>